<svg xmlns="http://www.w3.org/2000/svg" version="1.1" xmlns:xlink="http://www.w3.org/1999/xlink" xmlns:svgjs="http://svgjs.dev/svgjs" width="1000" height="1000" viewBox="0 0 1000 1000"><rect width="1000" height="1000" fill="#ffffff"></rect><g transform="matrix(0.7,0,0,0.7,149.57575757575756,282.1265587044535)"><svg viewBox="0 0 396 247" data-background-color="#cf5260" preserveAspectRatio="xMidYMid meet" height="623" width="1000" xmlns="http://www.w3.org/2000/svg" xmlns:xlink="http://www.w3.org/1999/xlink"><g id="tight-bounds" transform="matrix(1,0,0,1,0.2400000000000091,-0.09999999999999432)"><svg viewBox="0 0 395.52 247.2" height="247.2" width="395.52"><g><svg></svg></g><g><svg viewBox="0 0 395.52 247.2" height="247.2" width="395.52"><g><path xmlns="http://www.w3.org/2000/svg" d="M55.039 247.2l26.403-45.732h7.584l-22.403 38.804h262.274l-22.403-38.804 7.584 0 26.403 45.732zM197.76 0l26.403 45.732-7.583 0-18.82-32.596-18.82 32.596-7.583 0z" fill="#000000" fill-rule="nonzero" stroke="none" stroke-width="1" stroke-linecap="butt" stroke-linejoin="miter" stroke-miterlimit="10" stroke-dasharray="" stroke-dashoffset="0" font-family="none" font-weight="none" font-size="none" text-anchor="none" style="mix-blend-mode: normal" data-fill-palette-color="tertiary"></path></g><g transform="matrix(1,0,0,1,75.13466952596274,67.97999999999999)"><svg viewBox="0 0 245.2506609480745 111.24" height="111.24" width="245.2506609480745"><g><svg viewBox="0 0 245.2506609480745 111.24" height="111.24" width="245.2506609480745"><g><svg viewBox="0 0 245.2506609480745 111.24" height="111.24" width="245.2506609480745"><g><svg viewBox="0 0 135.34583850931676 111.24" height="111.24" width="135.34583850931676"><g id="textblocktransform"><svg viewBox="0 0 135.34583850931676 111.24" height="111.24" width="135.34583850931676" id="textblock"><g><svg viewBox="0 0 135.34583850931676 111.24" height="111.24" width="135.34583850931676"><g transform="matrix(1,0,0,1,0,0)"><svg width="135.34583850931676" viewBox="0.20000000298023224 -35.83000183105469 44.06999969482422 36.230003356933594" height="111.24" data-palette-color="#f0f0f0"><path d="M31.3-35.83L18.15-14.25 18.15 0 13.33 0 13.33-14.25 0.2-35.83 4.45-35.83Q5.1-35.83 5.48-35.5 5.85-35.18 6.13-34.7L6.13-34.7 14.33-20.78Q14.83-19.9 15.16-19.13 15.5-18.35 15.78-17.6L15.78-17.6Q16.05-18.38 16.38-19.15 16.7-19.93 17.2-20.78L17.2-20.78 25.38-34.7Q25.6-35.1 25.99-35.46 26.38-35.83 27-35.83L27-35.83 31.3-35.83ZM44.27-35.83L44.27-12.38Q44.27-9.38 43.54-7 42.8-4.63 41.36-2.99 39.92-1.35 37.82-0.48 35.72 0.4 33 0.4L33 0.4Q30.57 0.4 27.95-0.3L27.95-0.3Q28-1.03 28.07-1.74 28.15-2.45 28.22-3.15L28.22-3.15Q28.27-3.58 28.54-3.84 28.8-4.1 29.32-4.1L29.32-4.1Q29.77-4.1 30.52-3.88 31.27-3.65 32.52-3.65L32.52-3.65Q34.17-3.65 35.46-4.15 36.75-4.65 37.64-5.7 38.52-6.75 38.98-8.39 39.45-10.03 39.45-12.28L39.45-12.28 39.45-35.83 44.27-35.83Z" opacity="1" transform="matrix(1,0,0,1,0,0)" fill="#000000" class="wordmark-text-0" data-fill-palette-color="primary" id="text-0"></path></svg></g></svg></g></svg></g></svg></g><g transform="matrix(1,0,0,1,161.60693274931677,20.232430585721964)"><svg viewBox="0 0 83.64372819875776 70.77513882855607" height="70.77513882855607" width="83.64372819875776"><g><svg xmlns="http://www.w3.org/2000/svg" xmlns:xlink="http://www.w3.org/1999/xlink" version="1.1" x="0" y="0" viewBox="0 13.42199993133545 100 84.61499786376953" enable-background="new 0 0 100 100" xml:space="preserve" height="70.77513882855607" width="83.64372819875776" class="icon-icon-0" data-fill-palette-color="accent" id="icon-0"><g fill="#f0f0f0" data-fill-palette-color="accent"><path d="M0 13.422v84.615h100V13.422H0zM92.308 90.346H7.692V28.807h84.615V90.346z" fill="#000000" data-fill-palette-color="accent"></path><rect x="42.002" y="66.065" width="26.488" height="7.775" fill="#000000" data-fill-palette-color="accent"></rect><polygon points="15.521,66.064 41.988,55.549 41.988,55.527 42.002,55.533 42.002,47.181 41.988,47.187 41.988,47.165    15.521,36.65 15.515,45.014 31.487,51.357 15.515,57.701  " fill="#000000" data-fill-palette-color="accent"></polygon></g></svg></g></svg></g></svg></g></svg></g></svg></g></svg></g><defs></defs></svg><rect width="395.52" height="247.2" fill="none" stroke="none" visibility="hidden"></rect></g></svg></g></svg>